<?xml version="1.0" standalone="no"?>
<!DOCTYPE svg PUBLIC "-//W3C//DTD SVG 20010904//EN"
 "http://www.w3.org/TR/2001/REC-SVG-20010904/DTD/svg10.dtd">
<svg version="1.0" xmlns="http://www.w3.org/2000/svg"
 width="509.000000pt" height="182.000000pt" viewBox="0 0 509.000000 182.000000"
 preserveAspectRatio="xMidYMid meet">

<g transform="translate(0.000000,182.000000) scale(0.100000,-0.100000)"
fill="#000000" stroke="none">
<path d="M844 1591 c-130 -35 -304 -139 -304 -181 0 -11 -4 -20 -10 -20 -5 0
-10 -7 -10 -16 0 -12 9 -7 33 16 112 111 286 180 456 180 107 0 181 -18 291
-72 69 -33 101 -57 170 -127 134 -135 190 -269 190 -456 0 -169 -57 -318 -164
-433 -150 -160 -328 -233 -535 -219 -165 11 -295 72 -421 197 -123 122 -189
282 -190 458 0 60 -2 71 -13 60 -17 -15 -18 -26 -17 -108 2 -133 62 -286 160
-407 192 -237 555 -313 835 -174 102 51 181 115 241 194 54 72 116 197 135
277 17 67 17 226 1 299 -55 246 -231 441 -469 518 -108 36 -277 42 -379 14z"/>
<path d="M2094 1353 c-14 -67 -27 -94 -55 -118 -17 -14 -37 -25 -45 -25 -8 0
-14 -9 -14 -19 0 -16 8 -20 38 -23 l37 -3 5 -208 c5 -205 5 -209 29 -228 41
-34 160 -21 176 19 8 22 -2 27 -30 14 -39 -18 -73 -15 -85 7 -11 21 -14 358
-4 385 5 12 20 16 60 16 47 0 54 2 54 20 0 18 -7 20 -54 20 -64 0 -66 3 -66
101 0 62 -2 69 -20 69 -13 0 -22 -9 -26 -27z"/>
<path d="M3525 1343 c-11 -60 -45 -112 -82 -125 -50 -18 -45 -48 7 -48 l40 0
0 -189 c0 -203 7 -242 46 -260 54 -24 153 -5 167 33 9 22 -3 27 -27 11 -25
-18 -68 -19 -84 -3 -9 9 -12 69 -12 210 l0 198 55 0 c48 0 55 3 55 19 0 17 -8
20 -52 23 l-53 3 -3 83 c-3 79 -4 82 -26 82 -20 0 -25 -7 -31 -37z"/>
<path d="M782 1137 l-222 -222 225 -225 225 -225 225 225 225 225 -222 222
c-123 123 -225 223 -228 223 -3 0 -105 -100 -228 -223z m424 -416 l-195 -195
-195 188 c-108 104 -196 193 -196 200 0 6 87 97 192 203 l193 193 197 -197
198 -198 -194 -194z"/>
<path d="M2448 1215 c-94 -30 -122 -97 -116 -276 3 -112 4 -119 33 -161 41
-58 102 -80 203 -73 169 12 208 68 200 290 -4 139 -21 180 -84 210 -50 24
-176 29 -236 10z m192 -45 c30 -16 40 -66 40 -199 0 -200 -13 -221 -133 -221
-109 0 -127 31 -127 215 1 125 11 184 36 202 21 15 157 18 184 3z"/>
<path d="M3897 1220 c-54 -14 -85 -38 -110 -84 -19 -36 -22 -56 -22 -171 0
-116 2 -135 23 -172 33 -63 85 -87 192 -87 116 -1 168 22 201 90 21 43 24 63
24 169 0 108 -2 125 -25 170 -33 66 -69 86 -168 91 -42 2 -94 -1 -115 -6z
m189 -61 c17 -19 19 -38 19 -195 0 -211 2 -207 -115 -212 -74 -4 -81 -2 -104
22 -26 25 -26 26 -26 191 0 163 0 166 25 190 21 22 33 25 103 25 68 0 82 -3
98 -21z"/>
<path d="M2825 1200 c-10 -16 4 -30 29 -30 32 0 36 -8 84 -135 22 -60 59 -157
81 -215 23 -58 41 -113 41 -124 0 -10 -16 -63 -36 -117 -34 -97 -36 -119 -10
-119 14 0 40 64 176 442 43 119 84 226 90 237 6 11 25 24 43 29 17 5 33 16 35
25 3 15 -9 17 -108 17 -100 0 -111 -2 -108 -17 2 -10 16 -20 34 -24 45 -9 55
-18 49 -42 -15 -56 -104 -292 -112 -294 -5 -2 -15 14 -22 34 -7 21 -33 92 -57
158 -24 67 -44 126 -44 132 0 7 15 13 32 15 22 2 34 9 36 21 3 15 -7 17 -112
17 -66 0 -117 -4 -121 -10z"/>
<path d="M4260 1191 c0 -15 8 -21 31 -23 32 -3 32 -4 121 -237 l89 -235 -36
-99 c-39 -111 -43 -140 -19 -135 18 3 18 3 160 393 58 160 113 296 122 303 9
6 26 12 39 12 16 0 23 6 23 20 0 20 -5 21 -107 18 -88 -2 -108 -6 -108 -18 0
-8 9 -16 20 -18 51 -7 65 -13 65 -28 0 -28 -105 -314 -114 -311 -8 3 -126 311
-126 330 0 4 16 7 35 7 28 0 35 4 35 20 0 19 -7 20 -115 20 -107 0 -115 -1
-115 -19z"/>
</g>
</svg>
